<svg xmlns="http://www.w3.org/2000/svg" viewBox="0 0 226.1 113.4"><defs><style>.cls-1{fill:#62bb47;}.cls-2{font-size:42px;fill:#231f20;font-family:Bookmania-RegularItalic, Bookmania;font-style:italic;}.cls-3{letter-spacing:-0.02em;}</style></defs><title>GW_logo</title><g id="Layer_2" data-name="Layer 2"><g id="Layer_1-2" data-name="Layer 1"><path class="cls-1" d="M13.87,70.3,10,73.58a22.49,22.49,0,0,1-1.29-8.94c.46-9.18,4.94-16.34,11.46-22.41S34.36,32,42.46,28.53c5.1-2.19,10.32-4.13,15.31-6.54a39.5,39.5,0,0,0,15-12.18A23.29,23.29,0,0,0,77.15,0c0,.32.08.63.09,1a131.26,131.26,0,0,1-4.43,40C70.44,49.37,67,57.26,61.63,64.2A42.55,42.55,0,0,1,33.81,80.63,52.79,52.79,0,0,1,22,81.56a19.07,19.07,0,0,1-9.4-2.68c-3,6.87-6.12,13.6-6.18,21.33l-6.4.3C4.21,90.16,8.15,79.86,13.87,70.3Z"/><text class="cls-2" transform="translate(86.7 49.07)">Garden<tspan x="0" y="39">Vi</tspan><tspan class="cls-3" x="39.52" y="39">e</tspan><tspan x="60.14" y="39">w</tspan></text></g></g></svg>