<svg xmlns="http://www.w3.org/2000/svg" viewBox="0 0 29.86 35.02"><defs><style>.cls-1{fill:#299c48;}</style></defs><title>fertilizer_1</title><g id="Layer_2" data-name="Layer 2"><g id="Layer_1-2" data-name="Layer 1"><path class="cls-1" d="M17.68,13.71a1.08,1.08,0,1,0-1.53,0A1.09,1.09,0,0,0,17.68,13.71Z"/><path class="cls-1" d="M14.43,19.5,19,24.06,29.86,13.19,16.67,0,0,16.67l9.26,9.25h7.87L18,25.1l-4.57-4.57a.74.74,0,0,1,0-1A.75.75,0,0,1,14.43,19.5Zm-1.63-1a.78.78,0,0,1-.16.24.61.61,0,0,1-.24.15.67.67,0,0,1-.28.06.75.75,0,0,1-.68-.45.87.87,0,0,1,0-.28.74.74,0,0,1,.21-.51.73.73,0,0,1,.52-.22.92.92,0,0,1,.28.05.81.81,0,0,1,.24.17.74.74,0,0,1,.21.51A.87.87,0,0,1,12.8,18.51Zm.11-4.66h0a1.28,1.28,0,0,1,.93-2.18,1.24,1.24,0,0,1-.39-.92h0a1.27,1.27,0,0,1,1.27-1.27,1.29,1.29,0,0,1,.92.39A1.27,1.27,0,0,1,16,8.94a1.3,1.3,0,0,1,1.81,0h0a1.31,1.31,0,0,1,.37.93,1.27,1.27,0,1,1,1.8,1.8,1.28,1.28,0,1,1,0,2.55,1.27,1.27,0,0,1-.89,2.19h0a1.27,1.27,0,0,1-.91-.39,1.28,1.28,0,0,1-2.18.92,1.24,1.24,0,0,1-.37-.92,1.29,1.29,0,0,1-.92.39,1.27,1.27,0,0,1-1.27-1.28,1.23,1.23,0,0,1,.39-.91A1.31,1.31,0,0,1,12.91,13.85Z"/><rect class="cls-1" x="11.06" y="27.33" width="1.79" height="1.79" rx="0.9"/><rect class="cls-1" x="13.51" y="29.4" width="1.79" height="1.79" rx="0.9"/><rect class="cls-1" x="10.73" y="31.15" width="1.79" height="1.79" rx="0.9"/><rect class="cls-1" x="13.18" y="33.22" width="1.79" height="1.79" rx="0.9"/></g></g></svg>