<?xml version="1.0" encoding="utf-8"?>
<!-- Generator: Adobe Illustrator 25.1.0, SVG Export Plug-In . SVG Version: 6.00 Build 0)  -->
<svg version="1.1" id="Layer_1" xmlns="http://www.w3.org/2000/svg" xmlns:xlink="http://www.w3.org/1999/xlink" x="0px" y="0px"
	 viewBox="0 0 24.1 33.4" style="enable-background:new 0 0 24.1 33.4;" xml:space="preserve">
<style type="text/css">
	.st0{fill:#279B27;}
</style>
<g id="Layer_2_1_">
	<g id="Layer_1-2">
		<path class="st0" d="M13,0c-0.3,0-0.6,0-0.9,0s-0.6,0-0.9,0C2.7,0.6-2.2,9.6,1,17.1c0.4,0.8,0.8,1.6,1.3,2.3l9.7,13.9l9.7-13.9
			c0.5-0.7,1-1.5,1.4-2.3C26.4,9.6,21.4,0.6,13,0z M12.1,18.1c-3.2,0-5.8-2.6-5.8-5.8s2.6-5.8,5.8-5.8c3.2,0,5.8,2.6,5.8,5.8
			c0,0,0,0,0,0C17.8,15.5,15.3,18.1,12.1,18.1C12.1,18.1,12.1,18.1,12.1,18.1z"/>
	</g>
</g>
</svg>
