<?xml version="1.0" encoding="utf-8"?>
<!-- Generator: Adobe Illustrator 25.1.0, SVG Export Plug-In . SVG Version: 6.00 Build 0)  -->
<svg version="1.1" id="Layer_1" xmlns="http://www.w3.org/2000/svg" xmlns:xlink="http://www.w3.org/1999/xlink" x="0px" y="0px"
	 viewBox="0 0 32.6 27.4" style="enable-background:new 0 0 32.6 27.4;" xml:space="preserve">
<style type="text/css">
	.st0{fill:#279B27;}
</style>
<g id="Layer_2_1_">
	<g id="Layer_1-2">
		<path class="st0" d="M27,2.3c-2.1-2.2-5.5-2.6-8.1-1c-0.2,0.1-0.4,0.1-0.5-0.1l-1-1C17.2,0,17,0,16.8,0.1L6.5,8.7
			c-0.1,0.2-0.1,0.4,0,0.6l2,3.1c0.2,0.3,0.1,0.6-0.2,0.6l-5.1,1.1c-0.1,0-0.1,0-0.2-0.1l-2.5-0.9C0.2,13-0.1,13.2,0,13.6l2.1,5.3
			c0.1,0.3,0.5,0.5,0.7,0.2l1.4-1.8c0-0.1,0.1-0.1,0.2-0.1l6-1.3c0.2,0,0.4,0.1,0.5,0.2l7.1,11c0.1,0.2,0.4,0.3,0.6,0.2c0,0,0,0,0,0
			l13.8-11.5c0.2-0.2,0.1-0.5,0-0.6c0,0,0,0,0,0l-4-4c-0.2-0.1-0.2-0.4-0.1-0.6C29.7,7.9,29.1,4.5,27,2.3z M26.4,9.2l-6-6
			c-0.2-0.1-0.2-0.4-0.1-0.6c0,0,0.1-0.1,0.1-0.1c1.9-0.9,4.1-0.6,5.6,0.9c1.4,1.6,1.8,3.8,1,5.8C27,9.4,26.6,9.4,26.4,9.2L26.4,9.2
			z"/>
	</g>
</g>
</svg>
